<svg version="1.1" id="Layer_1" xmlns="http://www.w3.org/2000/svg" xmlns:xlink="http://www.w3.org/1999/xlink" x="0px" y="0px"
	 width="100%" viewBox="0 0 442 468" enable-background="new 0 0 442 468" xml:space="preserve">
<path fill="#01183E" opacity="1.000000" stroke="none" 
	d="
M1.999999,469.000000 
	C1.666672,467.667236 1.044306,466.334961 1.042229,465.001678 
	C0.988772,430.680328 1.000000,396.358826 1.000000,362.037384 
	C1.000000,241.745712 1.000000,121.454033 1.000000,1.081180 
	C148.228165,1.081180 295.456390,1.081180 442.842316,1.081180 
	C442.842316,156.999863 442.842316,312.999939 442.842316,469.000000 
	C440.645111,469.000000 438.312622,469.000000 435.486694,468.531342 
	C434.662720,452.096130 434.694427,436.111694 433.906952,420.167694 
	C432.991089,401.624054 432.122223,383.020416 429.825806,364.618408 
	C427.406891,345.234955 423.829376,325.953003 419.804108,306.827484 
	C416.870453,292.888428 410.236084,280.562103 398.322357,271.898438 
	C394.170044,268.878876 389.861481,265.919861 385.252106,263.709320 
	C363.038757,253.056366 340.519287,243.027786 318.474335,232.043289 
	C306.424561,226.039169 297.185791,216.472229 295.610748,202.489655 
	C294.350281,191.299393 295.102905,179.876068 295.152069,168.556992 
	C295.155853,167.682755 296.509827,166.341965 297.497375,166.020660 
	C304.173218,163.848618 308.927124,159.151947 311.262360,153.046387 
	C315.399445,142.229813 319.232788,131.165771 321.670410,119.876465 
	C323.309357,112.286018 322.916016,103.897766 314.738342,100.156708 
	C313.778412,89.807899 313.574371,79.962379 311.827667,70.398590 
	C308.388947,51.570427 299.509857,35.619732 283.577026,24.408485 
	C267.751709,13.272874 249.870926,9.182233 230.663330,9.975496 
	C205.542969,11.012956 184.409546,19.531458 171.305603,42.236259 
	C160.187073,61.500977 154.505219,81.935982 160.488770,104.350990 
	C161.067596,106.519333 160.210846,109.067314 160.038925,111.440399 
	C159.686508,116.304543 158.611221,121.265511 159.229309,126.004570 
	C159.743393,129.946213 162.906021,133.486664 163.761765,137.449631 
	C166.771042,151.385620 169.022385,165.485992 172.066757,179.413513 
	C175.717789,196.116470 181.275314,212.038956 193.318436,224.900772 
	C196.136108,227.910019 196.047440,237.020203 192.726974,239.589203 
	C186.443802,244.450455 180.034653,249.335602 173.072495,253.087509 
	C163.335678,258.334717 153.044724,262.553650 141.681137,267.819427 
	C142.811005,260.426178 143.793274,254.612228 144.573425,248.771271 
	C146.437057,234.818253 148.292145,220.862839 149.962540,206.885925 
	C150.505417,202.343552 148.667862,198.910889 144.282013,196.777374 
	C142.875595,196.093216 141.787598,194.219116 141.125778,192.648468 
	C139.634766,189.109970 138.104584,185.972107 133.499557,185.993378 
	C128.749893,186.015335 126.275497,188.560226 124.871704,192.830414 
	C120.717812,205.466125 116.486176,218.076736 112.203209,230.669373 
	C110.221336,236.496429 108.049736,242.258957 105.964142,248.050720 
	C105.710213,247.980087 105.456291,247.909439 105.202362,247.838791 
	C105.114319,247.204651 105.026276,246.570526 104.953278,245.474548 
	C104.961807,237.026886 104.955276,229.041061 104.960144,220.704071 
	C104.959435,219.884628 104.947334,219.416367 104.949341,218.499817 
	C104.941483,215.041290 104.919533,212.031067 104.923325,208.551605 
	C104.962524,202.422653 105.038010,196.762238 104.972687,191.103439 
	C104.901855,184.966705 101.681801,180.593857 96.990463,180.042480 
	C92.006775,179.456741 88.362900,182.504257 87.060020,189.013718 
	C85.913933,194.739838 85.284424,200.569382 84.392654,206.583313 
	C77.309502,201.157654 73.729279,202.315933 71.008011,210.500534 
	C70.641579,211.602631 70.181458,212.724670 70.098267,213.861862 
	C69.360954,223.940872 68.848152,234.038361 67.975647,244.104935 
	C66.960991,255.811676 65.900703,267.524750 64.410614,279.177582 
	C62.120586,297.086212 59.638073,314.845886 64.430794,332.868469 
	C65.447067,336.690063 63.290428,341.901154 61.317196,345.829926 
	C59.002159,350.439240 54.728474,354.048798 52.301502,358.621246 
	C47.080872,368.457031 42.625061,378.695129 37.627995,388.654053 
	C29.128422,405.593353 19.978296,422.225220 12.039997,439.419556 
	C7.699568,448.820892 5.283738,459.110809 1.999999,469.000000 
z"/>
<path fill="#2C6FD2" opacity="1.000000" stroke="none" 
	d="
M342.000000,469.000000 
	C266.645782,469.000000 191.291550,469.000000 115.468018,468.556763 
	C114.663338,461.145996 114.302460,454.179596 113.999161,447.210724 
	C113.630867,438.748962 113.904510,430.209045 112.832161,421.839813 
	C111.200188,409.102966 112.925804,396.816193 115.997284,384.584839 
	C117.621506,378.116821 120.434044,371.958771 117.248291,364.977783 
	C115.780205,361.760712 120.505142,354.830536 124.005859,352.907410 
	C138.464722,344.964294 150.411819,334.360016 159.058411,320.117920 
	C164.446198,311.243500 170.109283,302.521393 176.004990,293.976685 
	C178.815399,289.903534 182.598785,286.515717 185.676773,282.608948 
	C188.300385,279.278931 189.484924,275.358398 186.749039,271.595581 
	C184.086334,267.933380 179.971573,268.367889 176.303894,269.508057 
	C169.319290,271.679382 163.969315,276.271149 159.203751,281.750885 
	C154.458405,287.207458 149.347092,292.345734 144.396225,297.623566 
	C143.682861,297.314362 142.969513,297.005127 142.256149,296.695923 
	C141.849594,289.552063 141.527695,282.401886 140.995499,275.267395 
	C140.777710,272.347443 141.833603,270.972198 144.593475,269.821594 
	C153.533981,266.094208 162.420013,262.197601 171.117340,257.938019 
	C177.749176,254.690018 184.062347,250.791382 189.528259,247.735199 
	C193.294678,254.852325 195.888062,262.657959 200.856628,268.413055 
	C207.198288,275.758606 213.936859,283.616119 226.393127,280.180603 
	C256.429138,271.896545 282.867584,257.527466 305.344421,235.973251 
	C308.013031,233.414215 310.264374,232.142181 313.962067,233.874191 
	C335.531342,243.977249 357.120636,254.040955 378.804688,263.894592 
	C398.053284,272.641541 412.101501,285.878204 416.369904,307.327454 
	C419.897186,325.052551 423.365051,342.824280 425.821533,360.717773 
	C428.225739,378.230103 429.995972,395.891693 430.799561,413.544434 
	C431.639435,431.994415 430.995392,450.511993 431.000000,469.000000 
	C402.979095,469.000000 374.958221,469.000000 346.436401,468.575867 
	C345.618805,466.351715 345.054291,464.556030 345.023132,462.751129 
	C344.647064,440.954956 343.924133,419.152252 344.185852,397.362061 
	C344.352570,383.482544 345.857483,369.607635 347.064484,355.757019 
	C347.645050,349.094971 348.924530,342.493835 349.887543,335.865082 
	C348.913361,336.815186 348.444183,337.849518 348.043427,338.909729 
	C342.530823,353.491943 341.289642,368.864441 341.141479,384.141083 
	C340.867188,412.421936 341.654724,440.713135 342.000000,469.000000 
M294.992035,371.580170 
	C291.924316,356.273315 288.711761,341.012238 281.040833,325.421204 
	C280.110352,327.209320 279.861542,327.832947 279.492767,328.375000 
	C269.178131,343.536346 260.829620,359.660522 255.483749,377.262207 
	C252.824631,386.017578 250.646851,394.935638 252.328735,404.081055 
	C255.881058,423.396881 263.847870,441.015259 274.043640,457.678131 
	C276.065430,460.982300 278.323883,464.141663 281.174835,468.421021 
	C282.821625,465.099609 284.177185,463.060577 284.883820,460.817139 
	C287.589691,452.226379 290.480621,443.664581 292.583466,434.919037 
	C297.541321,414.299927 298.992920,393.465424 294.992035,371.580170 
z"/>
<path fill="#030812" opacity="1.000000" stroke="none" 
	d="
M431.399994,469.000000 
	C430.995392,450.511993 431.639435,431.994415 430.799561,413.544434 
	C429.995972,395.891693 428.225739,378.230103 425.821533,360.717773 
	C423.365051,342.824280 419.897186,325.052551 416.369904,307.327454 
	C412.101501,285.878204 398.053284,272.641541 378.804688,263.894592 
	C357.120636,254.040955 335.531342,243.977249 313.962067,233.874191 
	C310.264374,232.142181 308.013031,233.414215 305.344421,235.973251 
	C282.867584,257.527466 256.429138,271.896545 226.393127,280.180603 
	C213.936859,283.616119 207.198288,275.758606 200.856628,268.413055 
	C195.888062,262.657959 193.294678,254.852325 189.528259,247.735199 
	C184.062347,250.791382 177.749176,254.690018 171.117340,257.938019 
	C162.420013,262.197601 153.533981,266.094208 144.593475,269.821594 
	C141.833603,270.972198 140.777710,272.347443 140.995499,275.267395 
	C141.527695,282.401886 141.849594,289.552063 142.256149,296.695923 
	C142.969513,297.005127 143.682861,297.314362 144.396225,297.623566 
	C149.347092,292.345734 154.458405,287.207458 159.203751,281.750885 
	C163.969315,276.271149 169.319290,271.679382 176.303894,269.508057 
	C179.971573,268.367889 184.086334,267.933380 186.749039,271.595581 
	C189.484924,275.358398 188.300385,279.278931 185.676773,282.608948 
	C182.598785,286.515717 178.815399,289.903534 176.004990,293.976685 
	C170.109283,302.521393 164.446198,311.243500 159.058411,320.117920 
	C150.411819,334.360016 138.464722,344.964294 124.005859,352.907410 
	C120.505142,354.830536 115.780205,361.760712 117.248291,364.977783 
	C120.434044,371.958771 117.621506,378.116821 115.997284,384.584839 
	C112.925804,396.816193 111.200188,409.102966 112.832161,421.839813 
	C113.904510,430.209045 113.630867,438.748962 113.999161,447.210724 
	C114.302460,454.179596 114.663338,461.145996 114.999359,468.556763 
	C113.611107,469.000000 112.222221,469.000000 110.453056,468.576691 
	C110.393219,467.064789 111.015823,465.968475 110.988174,464.888824 
	C110.644516,451.466583 110.240402,438.045502 109.743004,424.628143 
	C109.689629,423.188385 108.951637,421.774048 108.531235,420.347900 
	C108.137474,420.377563 107.743721,420.407196 107.349968,420.436859 
	C104.233307,436.624573 101.116653,452.812286 98.000000,469.000000 
	C97.250000,469.000000 96.500000,469.000000 95.362175,468.583008 
	C100.994469,438.892059 107.014595,409.618103 112.891655,381.039825 
	C91.542297,397.179504 65.015396,384.850708 59.130684,353.905060 
	C57.680958,355.855804 56.579624,356.964508 55.912231,358.291473 
	C44.841446,380.303284 33.904816,402.382812 22.768215,424.361115 
	C15.493959,438.716949 8.667724,453.222076 5.000000,469.000000 
	C4.250000,469.000000 3.500000,469.000000 2.374997,469.000000 
	C5.283738,459.110809 7.699568,448.820892 12.039997,439.419556 
	C19.978296,422.225220 29.128422,405.593353 37.627995,388.654053 
	C42.625061,378.695129 47.080872,368.457031 52.301502,358.621246 
	C54.728474,354.048798 59.002159,350.439240 61.317196,345.829926 
	C63.290428,341.901154 65.447067,336.690063 64.430794,332.868469 
	C59.638073,314.845886 62.120586,297.086212 64.410614,279.177582 
	C65.900703,267.524750 66.960991,255.811676 67.975647,244.104935 
	C68.848152,234.038361 69.360954,223.940872 70.098267,213.861862 
	C70.181458,212.724670 70.641579,211.602631 71.008011,210.500534 
	C73.729279,202.315933 77.309502,201.157654 84.392654,206.583313 
	C85.284424,200.569382 85.913933,194.739838 87.060020,189.013718 
	C88.362900,182.504257 92.006775,179.456741 96.990463,180.042480 
	C101.681801,180.593857 104.901855,184.966705 104.972687,191.103439 
	C105.038010,196.762238 104.962524,202.422653 104.562645,208.406342 
	C103.784126,206.884705 103.194168,205.055573 103.038765,203.190262 
	C102.645729,198.472916 102.447998,193.739288 102.029373,188.667847 
	C100.681160,184.230453 97.180389,182.999252 93.951469,183.996979 
	C92.155525,184.551910 90.398468,187.928391 90.113953,190.218353 
	C88.793533,200.845993 87.477257,211.522751 87.153717,222.212021 
	C86.827919,232.975754 87.702629,243.774216 87.990891,254.559097 
	C88.084015,258.043396 87.683662,261.340027 83.489014,262.273529 
	C83.860596,260.069305 84.464828,258.086243 84.477875,256.099274 
	C84.513145,250.724518 84.297119,245.348114 84.400154,239.626282 
	C84.451401,230.529938 84.283279,221.779678 83.917938,212.736908 
	C81.989510,210.157608 80.258293,207.870804 78.527084,205.584000 
	C77.904900,205.556717 77.282715,205.529419 76.660538,205.502136 
	C75.445183,208.676605 73.443253,211.781662 73.155800,215.038040 
	C72.120384,226.767700 71.837204,238.561783 70.934181,250.305710 
	C70.161034,260.360443 69.417183,270.460358 67.780869,280.395416 
	C65.459183,294.491730 64.096199,308.467651 65.892143,322.778229 
	C67.510559,335.674255 72.561836,345.109070 87.858513,347.657013 
	C78.223930,348.366913 78.223930,348.366913 67.173050,340.585724 
	C65.748627,346.831635 62.944366,352.902496 63.302849,358.780487 
	C64.202316,373.529053 85.768501,388.333649 99.945328,384.641266 
	C102.788406,383.900787 106.772583,382.459900 107.682167,380.279022 
	C111.157104,371.947418 113.591278,363.181702 116.426018,354.541779 
	C114.595146,354.271637 112.588974,353.975647 109.765450,353.559052 
	C112.030014,353.064423 113.467323,352.823761 114.863174,352.434448 
	C132.023849,347.648438 144.308304,336.033264 153.753784,321.955505 
	C162.631744,308.723572 169.551605,294.192169 181.295654,282.968628 
	C182.658981,281.665771 183.602859,279.785980 184.353729,278.009857 
	C185.777252,274.642639 182.947296,271.158234 179.411850,272.143890 
	C176.336517,273.001312 172.903656,274.005493 170.634964,276.057343 
	C164.007492,282.051239 157.904816,288.623322 151.552200,294.924164 
	C148.486847,297.964539 145.210159,300.639740 138.980438,299.649475 
	C138.616028,291.606079 137.737885,283.469086 138.025497,275.373474 
	C138.306885,267.452850 139.583267,259.545288 140.770325,251.684418 
	C142.515366,240.128571 144.793182,228.650009 146.378845,217.074799 
	C146.996094,212.568893 146.626404,207.857605 146.096924,203.310837 
	C145.952347,202.069397 143.652603,200.992676 142.178253,200.115387 
	C142.017059,200.019485 140.363968,201.639328 140.084747,202.651489 
	C135.575165,218.998108 131.337357,235.421768 126.636559,251.712143 
	C125.487152,255.695404 123.435699,259.175659 128.808273,261.808594 
	C125.242355,261.443939 120.869728,261.713165 122.186211,256.764648 
	C125.482986,244.372528 129.565018,232.190506 132.930893,219.815109 
	C135.084076,211.898499 136.925888,203.847839 138.135956,195.742126 
	C138.895203,190.656311 135.654312,188.149994 131.213654,190.129669 
	C129.270401,190.995972 127.848885,193.978241 127.041069,196.296097 
	C120.622322,214.713455 114.462746,233.221100 108.056442,251.642899 
	C107.325768,253.744003 105.564285,255.486664 104.280762,257.395538 
	C103.688622,257.209137 103.096481,257.022705 102.504333,256.836304 
	C101.374710,244.259048 100.901031,231.658798 102.336220,218.842499 
	C103.320068,218.774170 104.127647,218.861145 104.935234,218.948120 
	C104.947334,219.416367 104.959435,219.884628 104.709854,221.025116 
	C104.611519,229.777039 104.774872,237.856705 104.938225,245.936386 
	C105.026276,246.570526 105.114319,247.204651 105.202362,247.838791 
	C105.456291,247.909439 105.710213,247.980087 105.964142,248.050720 
	C108.049736,242.258957 110.221336,236.496429 112.203209,230.669373 
	C116.486176,218.076736 120.717812,205.466125 124.871704,192.830414 
	C126.275497,188.560226 128.749893,186.015335 133.499557,185.993378 
	C138.104584,185.972107 139.634766,189.109970 141.125778,192.648468 
	C141.787598,194.219116 142.875595,196.093216 144.282013,196.777374 
	C148.667862,198.910889 150.505417,202.343552 149.962540,206.885925 
	C148.292145,220.862839 146.437057,234.818253 144.573425,248.771271 
	C143.793274,254.612228 142.811005,260.426178 141.681137,267.819427 
	C153.044724,262.553650 163.335678,258.334717 173.072495,253.087509 
	C180.034653,249.335602 186.443802,244.450455 192.726974,239.589203 
	C196.047440,237.020203 196.136108,227.910019 193.318436,224.900772 
	C181.275314,212.038956 175.717789,196.116470 172.066757,179.413513 
	C169.022385,165.485992 166.771042,151.385620 163.761765,137.449631 
	C162.906021,133.486664 159.743393,129.946213 159.229309,126.004570 
	C158.611221,121.265511 159.686508,116.304543 160.038925,111.440399 
	C160.210846,109.067314 161.067596,106.519333 160.488770,104.350990 
	C154.505219,81.935982 160.187073,61.500977 171.305603,42.236259 
	C184.409546,19.531458 205.542969,11.012956 230.663330,9.975496 
	C249.870926,9.182233 267.751709,13.272874 283.577026,24.408485 
	C299.509857,35.619732 308.388947,51.570427 311.827667,70.398590 
	C313.574371,79.962379 313.778412,89.807899 314.738342,100.156708 
	C322.916016,103.897766 323.309357,112.286018 321.670410,119.876465 
	C319.232788,131.165771 315.399445,142.229813 311.262360,153.046387 
	C308.927124,159.151947 304.173218,163.848618 297.497375,166.020660 
	C296.509827,166.341965 295.155853,167.682755 295.152069,168.556992 
	C295.102905,179.876068 294.350281,191.299393 295.610748,202.489655 
	C297.185791,216.472229 306.424561,226.039169 318.474335,232.043289 
	C340.519287,243.027786 363.038757,253.056366 385.252106,263.709320 
	C389.861481,265.919861 394.170044,268.878876 398.322357,271.898438 
	C410.236084,280.562103 416.870453,292.888428 419.804108,306.827484 
	C423.829376,325.953003 427.406891,345.234955 429.825806,364.618408 
	C432.122223,383.020416 432.991089,401.624054 433.906952,420.167694 
	C434.694427,436.111694 434.662720,452.096130 434.996613,468.531342 
	C433.933319,469.000000 432.866669,469.000000 431.399994,469.000000 
M290.573730,167.673080 
	C289.823090,168.333817 288.582794,168.877975 288.393677,169.672394 
	C284.034882,187.981812 273.998291,202.547501 259.335327,214.088989 
	C251.327927,220.391769 243.184006,226.441223 233.056152,229.073608 
	C221.595901,232.052307 210.267517,231.039246 199.051514,227.949066 
	C196.451447,236.864365 198.374374,241.812317 205.783966,246.007858 
	C213.616943,250.443161 222.383011,251.497116 230.668762,249.657669 
	C254.137772,244.447525 274.303833,232.801315 291.002411,215.408966 
	C292.102966,214.262726 292.944122,212.246826 292.858856,210.692886 
	C292.534119,204.774521 291.779694,198.879700 291.621246,192.281174 
	C291.491089,184.177231 291.360931,176.073273 290.573730,167.673080 
M285.229767,135.185333 
	C285.229767,135.185333 284.986206,134.987488 284.943481,134.112213 
	C286.689545,125.335678 287.158905,116.243965 283.640259,108.141121 
	C278.494995,96.292564 278.084778,83.881485 276.672882,70.326057 
	C242.273178,76.693542 207.858124,81.036362 174.517487,64.928497 
	C173.661133,67.320297 172.660995,69.558678 172.052856,71.898933 
	C166.547714,93.083954 167.526962,114.779114 167.102264,136.361053 
	C167.086304,137.171844 167.385986,137.989670 167.545120,138.802933 
	C169.369492,148.126236 171.559296,157.395721 172.940948,166.784134 
	C175.444702,183.797318 180.772491,199.820053 189.350006,214.640503 
	C191.520279,218.390366 195.062790,222.541901 198.900223,223.906662 
	C210.388351,227.992447 222.735352,229.427216 234.283279,225.016571 
	C254.704971,217.216644 270.379211,203.339478 279.880768,183.450455 
	C283.569214,175.729736 285.570221,167.202896 288.317474,159.109421 
	C293.292297,164.197723 297.109406,164.299622 302.519958,158.912521 
	C304.692749,156.749146 306.686981,154.191513 308.026550,151.453323 
	C310.426636,146.547195 312.720642,141.499878 314.242432,136.273788 
	C316.669983,127.937141 319.827362,119.533699 317.875336,110.633636 
	C317.336029,108.174744 315.716278,105.249313 313.697357,104.069992 
	C312.388428,103.305397 309.152985,104.881172 307.306824,106.164864 
	C300.442749,110.937714 297.576782,118.380920 295.132507,125.927399 
	C293.529114,130.877625 290.487915,134.064713 285.229767,135.185333 
M161.939758,125.377388 
	C162.379318,126.974602 162.818878,128.571823 163.258438,130.169037 
	C163.604050,130.103836 163.949677,130.038651 164.295288,129.973450 
	C163.946930,124.432419 163.598557,118.891388 163.250198,113.350357 
	C162.511078,113.367065 161.771973,113.383766 161.032852,113.400467 
	C161.255280,117.125801 161.477707,120.851135 161.939758,125.377388 
z"/>
<path fill="#2C70D3" opacity="1.000000" stroke="none" 
	d="
M5.468657,469.000000 
	C8.667724,453.222076 15.493959,438.716949 22.768215,424.361115 
	C33.904816,402.382812 44.841446,380.303284 55.912231,358.291473 
	C56.579624,356.964508 57.680958,355.855804 59.130684,353.905060 
	C65.015396,384.850708 91.542297,397.179504 112.891655,381.039825 
	C107.014595,409.618103 100.994469,438.892059 94.987175,468.583008 
	C65.312439,469.000000 35.624878,469.000000 5.468657,469.000000 
z"/>
<path fill="#020812" opacity="1.000000" stroke="none" 
	d="
M342.399994,469.000000 
	C341.654724,440.713135 340.867188,412.421936 341.141479,384.141083 
	C341.289642,368.864441 342.530823,353.491943 348.043427,338.909729 
	C348.444183,337.849518 348.913361,336.815186 349.887543,335.865082 
	C348.924530,342.493835 347.645050,349.094971 347.064484,355.757019 
	C345.857483,369.607635 344.352570,383.482544 344.185852,397.362061 
	C343.924133,419.152252 344.647064,440.954956 345.023132,462.751129 
	C345.054291,464.556030 345.618805,466.351715 345.967773,468.575867 
	C344.933319,469.000000 343.866669,469.000000 342.399994,469.000000 
z"/>
<path fill="#2B6FD1" opacity="1.000000" stroke="none" 
	d="
M98.460632,469.000000 
	C101.116653,452.812286 104.233307,436.624573 107.349968,420.436859 
	C107.743721,420.407196 108.137474,420.377563 108.531235,420.347900 
	C108.951637,421.774048 109.689629,423.188385 109.743004,424.628143 
	C110.240402,438.045502 110.644516,451.466583 110.988174,464.888824 
	C111.015823,465.968475 110.393219,467.064789 110.036392,468.576691 
	C106.307091,469.000000 102.614182,469.000000 98.460632,469.000000 
z"/>
<path fill="#010204" opacity="1.000000" stroke="none" 
	d="
M104.949341,218.499817 
	C104.127647,218.861145 103.320068,218.774170 102.265198,218.378571 
	C102.069290,208.384003 102.120667,198.698105 102.172035,189.012192 
	C102.447998,193.739288 102.645729,198.472916 103.038765,203.190262 
	C103.194168,205.055573 103.784126,206.884705 104.536911,208.875580 
	C104.919533,212.031067 104.941483,215.041290 104.949341,218.499817 
z"/>
<path fill="#010204" opacity="1.000000" stroke="none" 
	d="
M104.953278,245.474548 
	C104.774872,237.856705 104.611519,229.777039 104.698456,221.376312 
	C104.955276,229.041061 104.961807,237.026886 104.953278,245.474548 
z"/>
<path fill="#060910" opacity="1.000000" stroke="none" 
	d="
M295.000519,372.020386 
	C298.992920,393.465424 297.541321,414.299927 292.583466,434.919037 
	C290.480621,443.664581 287.589691,452.226379 284.883820,460.817139 
	C284.177185,463.060577 282.821625,465.099609 281.174835,468.421021 
	C278.323883,464.141663 276.065430,460.982300 274.043640,457.678131 
	C263.847870,441.015259 255.881058,423.396881 252.328735,404.081055 
	C250.646851,394.935638 252.824631,386.017578 255.483749,377.262207 
	C260.829620,359.660522 269.178131,343.536346 279.492767,328.375000 
	C279.861542,327.832947 280.110352,327.209320 281.040833,325.421204 
	C288.711761,341.012238 291.924316,356.273315 295.000519,372.020386 
M293.097168,385.917023 
	C291.683685,367.402435 287.611023,349.508026 280.621490,331.886475 
	C268.818726,349.877869 260.155273,368.767700 255.621796,390.740204 
	C257.686829,389.762756 258.871490,389.414124 259.801483,388.722839 
	C262.844177,386.461334 265.718231,383.969391 268.795105,381.757996 
	C276.061951,376.535278 279.038208,376.806488 285.499207,383.062195 
	C288.148895,385.627655 290.767578,388.225128 294.317749,391.708099 
	C293.828461,389.207428 293.584839,387.962311 293.097168,385.917023 
M258.976837,417.455292 
	C263.979645,433.322144 271.064392,448.170654 280.437317,462.233612 
	C286.286194,450.700745 292.379791,423.996887 293.854553,403.185272 
	C290.650299,406.197845 288.031586,408.602081 285.477081,411.072662 
	C278.618500,417.705994 275.379852,417.920746 267.664581,412.079285 
	C265.561218,410.486755 263.643219,408.641449 261.489594,407.126129 
	C260.030640,406.099609 258.308624,405.446991 256.704254,404.627167 
	C256.387848,404.927917 256.071442,405.228668 255.755020,405.529419 
	C256.813995,409.230927 257.872955,412.932434 258.976837,417.455292 
M268.529633,398.015015 
	C264.637848,398.015015 260.746094,398.015015 256.854309,398.015015 
	C256.608429,398.595856 256.362549,399.176727 256.116699,399.757568 
	C262.071594,404.027069 268.008362,408.322388 274.001282,412.537903 
	C274.887695,413.161469 276.409668,414.066223 277.011566,413.727722 
	C283.501068,410.078094 288.484955,404.884766 292.991516,398.015045 
	C284.477295,398.015045 276.998779,398.015045 268.529633,398.015015 
M267.547821,395.985016 
	C275.742554,395.985016 283.937317,395.985016 293.164124,395.985016 
	C289.687042,391.938812 287.327972,388.462921 284.245178,385.836548 
	C281.762268,383.721283 277.310699,380.562042 275.626556,381.451630 
	C268.769348,385.073761 262.641022,390.075775 256.244049,394.569214 
	C256.535431,395.041138 256.826813,395.513062 257.118225,395.984985 
	C260.269135,395.984985 263.420013,395.984985 267.547821,395.985016 
z"/>
<path fill="#FCBE80" opacity="1.000000" stroke="none" 
	d="
M285.472626,135.383972 
	C290.487915,134.064713 293.529114,130.877625 295.132507,125.927399 
	C297.576782,118.380920 300.442749,110.937714 307.306824,106.164864 
	C309.152985,104.881172 312.388428,103.305397 313.697357,104.069992 
	C315.716278,105.249313 317.336029,108.174744 317.875336,110.633636 
	C319.827362,119.533699 316.669983,127.937141 314.242432,136.273788 
	C312.720642,141.499878 310.426636,146.547195 308.026550,151.453323 
	C306.686981,154.191513 304.692749,156.749146 302.519958,158.912521 
	C297.109406,164.299622 293.292297,164.197723 288.317474,159.109421 
	C285.570221,167.202896 283.569214,175.729736 279.880768,183.450455 
	C270.379211,203.339478 254.704971,217.216644 234.283279,225.016571 
	C222.735352,229.427216 210.388351,227.992447 198.900223,223.906662 
	C195.062790,222.541901 191.520279,218.390366 189.350006,214.640503 
	C180.772491,199.820053 175.444702,183.797318 172.940948,166.784134 
	C171.559296,157.395721 169.369492,148.126236 167.545120,138.802933 
	C167.385986,137.989670 167.086304,137.171844 167.102264,136.361053 
	C167.526962,114.779114 166.547714,93.083954 172.052856,71.898933 
	C172.660995,69.558678 173.661133,67.320297 174.517487,64.928497 
	C207.858124,81.036362 242.273178,76.693542 276.672882,70.326057 
	C278.084778,83.881485 278.494995,96.292564 283.640259,108.141121 
	C287.158905,116.243965 286.689545,125.335678 284.692139,134.585022 
	C284.422028,135.281967 284.403259,135.506104 284.384521,135.730240 
	C284.747223,135.614807 285.109924,135.499390 285.472626,135.383972 
M268.086517,105.570068 
	C268.305786,105.600189 268.525024,105.630310 268.744263,105.660439 
	C268.721985,105.272957 268.699677,104.885483 268.247620,103.948029 
	C263.814758,96.288498 259.005737,94.390068 248.432404,97.616302 
	C239.911972,100.216125 231.680527,103.786148 223.396149,107.113144 
	C222.049133,107.654099 221.093048,109.168488 219.956284,110.232941 
	C221.569946,111.494812 223.217102,113.838608 224.790176,113.789879 
	C227.917068,113.693024 231.206451,112.703697 234.069946,111.333443 
	C244.836655,106.181274 255.740250,102.225258 268.086517,105.570068 
M197.568375,105.952568 
	C192.895599,103.715683 188.390869,100.967659 183.510208,99.363129 
	C176.398376,97.025101 171.944305,99.051895 170.448898,104.429916 
	C178.120926,103.325539 184.039703,107.111984 191.006943,111.251175 
	C184.887558,112.843353 178.812378,111.977188 174.793411,118.647110 
	C177.310974,117.863564 178.662674,117.046059 179.946411,117.141624 
	C181.632324,117.267143 183.392334,117.879478 184.890167,118.701904 
	C187.133179,119.933479 189.467407,122.971443 191.231400,122.614532 
	C193.551117,122.145187 195.355057,119.126785 197.702209,116.899483 
	C198.998154,117.255447 201.331802,117.896454 203.858734,118.590546 
	C201.082123,129.064774 198.246323,139.635788 195.507355,150.231827 
	C195.099518,151.809616 194.893860,153.526810 195.031769,155.142212 
	C195.449112,160.031433 201.139145,163.602921 206.380447,161.946823 
	C205.258728,161.160583 204.434616,160.479401 203.519348,159.958252 
	C197.640961,156.611099 197.077362,154.999603 198.950455,148.389084 
	C201.035934,141.028992 202.954178,133.621033 204.900681,126.222183 
	C207.037338,118.100441 206.653519,110.777885 197.568375,105.952568 
M259.820984,119.919487 
	C260.019409,119.755119 260.253113,119.616028 260.398315,119.413498 
	C260.453552,119.336418 260.312592,119.110756 260.249268,118.957687 
	C257.624023,112.612297 236.119751,110.936195 231.599518,116.281555 
	C230.765594,117.267685 230.385284,118.637405 229.795609,119.830078 
	C233.943436,117.590034 236.749985,116.009552 239.454468,121.625519 
	C241.300751,125.459373 246.740463,124.899033 248.898483,121.253235 
	C249.678482,119.935478 250.078033,118.392540 250.750977,116.701637 
	C253.713196,117.856735 256.404907,118.906342 259.820984,119.919487 
M301.945068,139.012650 
	C299.983734,142.311752 298.022369,145.610840 296.061005,148.909927 
	C296.443207,149.215942 296.825439,149.521957 297.207642,149.827972 
	C298.123901,149.363724 299.360535,149.136230 299.906067,148.398026 
	C304.573456,142.082306 308.464233,135.575455 306.045898,127.083885 
	C305.531158,125.276413 305.930267,122.639343 306.963348,121.086220 
	C308.768799,118.371895 311.434692,116.239731 313.646484,113.779518 
	C314.266785,113.089523 314.559967,112.105446 315.339447,110.612022 
	C307.543732,113.651489 298.422546,126.094986 298.557037,132.630432 
	C299.795563,131.691025 301.034088,130.751617 303.409882,128.949646 
	C302.833618,132.899429 302.445587,135.559204 301.945068,139.012650 
M197.992279,181.004105 
	C195.927994,181.902542 193.863708,182.800995 191.607880,183.782806 
	C206.820404,184.863403 221.331848,185.894180 235.843307,186.924973 
	C224.136902,180.229263 211.153564,182.989975 197.992279,181.004105 
M215.330704,194.951172 
	C210.713867,194.622055 206.097031,194.292938 200.576523,193.899399 
	C207.847305,199.074036 220.057739,199.122086 224.321716,194.030304 
	C221.268616,194.377777 218.750275,194.664398 215.330704,194.951172 
M218.629913,161.775513 
	C220.304565,162.176651 221.979233,162.577789 223.653885,162.978928 
	C223.930237,162.473419 224.206604,161.967896 224.482971,161.462387 
	C222.447021,160.329803 220.517715,158.677612 218.341003,158.230850 
	C216.633514,157.880402 214.619995,159.020981 212.742432,159.499146 
	C212.862503,159.926361 212.982574,160.353592 213.102646,160.780807 
	C214.716263,160.954987 216.329895,161.129166 218.629913,161.775513 
z"/>
<path fill="#FCBE80" opacity="1.000000" stroke="none" 
	d="
M102.029373,188.667847 
	C102.120667,198.698105 102.069290,208.384003 102.088943,218.533844 
	C100.901031,231.658798 101.374710,244.259048 102.504333,256.836304 
	C103.096481,257.022705 103.688622,257.209137 104.280762,257.395538 
	C105.564285,255.486664 107.325768,253.744003 108.056442,251.642899 
	C114.462746,233.221100 120.622322,214.713455 127.041069,196.296097 
	C127.848885,193.978241 129.270401,190.995972 131.213654,190.129669 
	C135.654312,188.149994 138.895203,190.656311 138.135956,195.742126 
	C136.925888,203.847839 135.084076,211.898499 132.930893,219.815109 
	C129.565018,232.190506 125.482986,244.372528 122.186211,256.764648 
	C120.869728,261.713165 125.242355,261.443939 128.808273,261.808594 
	C123.435699,259.175659 125.487152,255.695404 126.636559,251.712143 
	C131.337357,235.421768 135.575165,218.998108 140.084747,202.651489 
	C140.363968,201.639328 142.017059,200.019485 142.178253,200.115387 
	C143.652603,200.992676 145.952347,202.069397 146.096924,203.310837 
	C146.626404,207.857605 146.996094,212.568893 146.378845,217.074799 
	C144.793182,228.650009 142.515366,240.128571 140.770325,251.684418 
	C139.583267,259.545288 138.306885,267.452850 138.025497,275.373474 
	C137.737885,283.469086 138.616028,291.606079 138.980438,299.649475 
	C145.210159,300.639740 148.486847,297.964539 151.552200,294.924164 
	C157.904816,288.623322 164.007492,282.051239 170.634964,276.057343 
	C172.903656,274.005493 176.336517,273.001312 179.411850,272.143890 
	C182.947296,271.158234 185.777252,274.642639 184.353729,278.009857 
	C183.602859,279.785980 182.658981,281.665771 181.295654,282.968628 
	C169.551605,294.192169 162.631744,308.723572 153.753784,321.955505 
	C144.308304,336.033264 132.023849,347.648438 114.863174,352.434448 
	C113.467323,352.823761 112.030014,353.064423 109.765450,353.559052 
	C112.588974,353.975647 114.595146,354.271637 116.426018,354.541779 
	C113.591278,363.181702 111.157104,371.947418 107.682167,380.279022 
	C106.772583,382.459900 102.788406,383.900787 99.945328,384.641266 
	C85.768501,388.333649 64.202316,373.529053 63.302849,358.780487 
	C62.944366,352.902496 65.748627,346.831635 67.173050,340.585724 
	C78.223930,348.366913 78.223930,348.366913 87.858513,347.657013 
	C72.561836,345.109070 67.510559,335.674255 65.892143,322.778229 
	C64.096199,308.467651 65.459183,294.491730 67.780869,280.395416 
	C69.417183,270.460358 70.161034,260.360443 70.934181,250.305710 
	C71.837204,238.561783 72.120384,226.767700 73.155800,215.038040 
	C73.443253,211.781662 75.445183,208.676605 76.660538,205.502136 
	C77.282715,205.529419 77.904900,205.556717 78.527084,205.584000 
	C80.258293,207.870804 81.989510,210.157608 83.868515,213.200867 
	C84.071136,222.629028 84.125954,231.300690 84.180786,239.972366 
	C84.297119,245.348114 84.513145,250.724518 84.477875,256.099274 
	C84.464828,258.086243 83.860596,260.069305 83.489014,262.273529 
	C87.683662,261.340027 88.084015,258.043396 87.990891,254.559097 
	C87.702629,243.774216 86.827919,232.975754 87.153717,222.212021 
	C87.477257,211.522751 88.793533,200.845993 90.113953,190.218353 
	C90.398468,187.928391 92.155525,184.551910 93.951469,183.996979 
	C97.180389,182.999252 100.681160,184.230453 102.029373,188.667847 
M99.551147,290.041199 
	C95.707291,291.477234 91.863434,292.913239 88.019585,294.349243 
	C88.166252,294.742920 88.312927,295.136597 88.459595,295.530304 
	C100.370781,292.990112 112.082230,289.859497 122.890907,284.060089 
	C122.745857,283.617218 122.600800,283.174347 122.455750,282.731476 
	C115.087692,285.145935 107.719635,287.560425 99.551147,290.041199 
M104.250755,324.888123 
	C108.994057,314.068451 116.736084,306.174072 127.645157,301.369141 
	C116.051598,302.081940 103.887497,315.223511 102.223259,329.168365 
	C102.812294,327.978210 103.401329,326.788025 104.250755,324.888123 
z"/>
<path fill="#FBBE80" opacity="1.000000" stroke="none" 
	d="
M291.185822,192.976089 
	C291.779694,198.879700 292.534119,204.774521 292.858856,210.692886 
	C292.944122,212.246826 292.102966,214.262726 291.002411,215.408966 
	C274.303833,232.801315 254.137772,244.447525 230.668762,249.657669 
	C222.383011,251.497116 213.616943,250.443161 205.783966,246.007858 
	C198.374374,241.812317 196.451447,236.864365 199.051514,227.949066 
	C210.267517,231.039246 221.595901,232.052307 233.056152,229.073608 
	C243.184006,226.441223 251.327927,220.391769 259.335327,214.088989 
	C273.998291,202.547501 284.034882,187.981812 288.393677,169.672394 
	C288.582794,168.877975 289.823090,168.333817 290.800995,168.282257 
	C291.080780,176.919647 291.133301,184.947861 291.185822,192.976089 
z"/>
<path fill="#F6C688" opacity="1.000000" stroke="none" 
	d="
M161.819946,124.976929 
	C161.477707,120.851135 161.255280,117.125801 161.032852,113.400467 
	C161.771973,113.383766 162.511078,113.367065 163.250198,113.350357 
	C163.598557,118.891388 163.946930,124.432419 164.295288,129.973450 
	C163.949677,130.038651 163.604050,130.103836 163.258438,130.169037 
	C162.818878,128.571823 162.379318,126.974602 161.819946,124.976929 
z"/>
<path fill="#000001" opacity="1.000000" stroke="none" 
	d="
M84.400146,239.626282 
	C84.125954,231.300690 84.071136,222.629028 84.065735,213.493378 
	C84.283279,221.779678 84.451401,230.529938 84.400146,239.626282 
z"/>
<path fill="#010001" opacity="1.000000" stroke="none" 
	d="
M291.403534,192.628632 
	C291.133301,184.947861 291.080780,176.919647 291.129517,168.430374 
	C291.360931,176.073273 291.491089,184.177231 291.403534,192.628632 
z"/>
<path fill="#FBDFAC" opacity="1.000000" stroke="none" 
	d="
M293.219177,386.317139 
	C293.584839,387.962311 293.828461,389.207428 294.317749,391.708099 
	C290.767578,388.225128 288.148895,385.627655 285.499207,383.062195 
	C279.038208,376.806488 276.061951,376.535278 268.795105,381.757996 
	C265.718231,383.969391 262.844177,386.461334 259.801483,388.722839 
	C258.871490,389.414124 257.686829,389.762756 255.621796,390.740204 
	C260.155273,368.767700 268.818726,349.877869 280.621490,331.886475 
	C287.611023,349.508026 291.683685,367.402435 293.219177,386.317139 
M281.353943,371.190735 
	C285.538513,368.522125 287.515350,363.277496 285.779114,359.450500 
	C284.139435,355.836334 279.015533,353.703522 274.995178,354.961792 
	C270.266022,356.441895 268.000641,360.551239 269.021912,365.797058 
	C269.943451,370.530548 273.551392,372.363647 281.353943,371.190735 
z"/>
<path fill="#FBDFAB" opacity="1.000000" stroke="none" 
	d="
M258.954407,417.044617 
	C257.872955,412.932434 256.813995,409.230927 255.755020,405.529419 
	C256.071442,405.228668 256.387848,404.927917 256.704254,404.627167 
	C258.308624,405.446991 260.030640,406.099609 261.489594,407.126129 
	C263.643219,408.641449 265.561218,410.486755 267.664581,412.079285 
	C275.379852,417.920746 278.618500,417.705994 285.477081,411.072662 
	C288.031586,408.602081 290.650299,406.197845 293.854553,403.185272 
	C292.379791,423.996887 286.286194,450.700745 280.437317,462.233612 
	C271.064392,448.170654 263.979645,433.322144 258.954407,417.044617 
M280.699127,439.637329 
	C281.667908,439.033386 282.745422,438.551605 283.585815,437.803467 
	C286.501648,435.207458 287.037659,429.149902 284.706116,426.142303 
	C281.384521,421.857391 277.377960,420.879211 273.158691,423.323090 
	C269.395355,425.502869 267.582001,430.083160 269.191772,434.390198 
	C271.037781,439.329346 275.074554,440.561737 280.699127,439.637329 
z"/>
<path fill="#880015" opacity="1.000000" stroke="none" 
	d="
M269.024963,398.015015 
	C276.998779,398.015045 284.477295,398.015045 292.991516,398.015045 
	C288.484955,404.884766 283.501068,410.078094 277.011566,413.727722 
	C276.409668,414.066223 274.887695,413.161469 274.001282,412.537903 
	C268.008362,408.322388 262.071594,404.027069 256.116699,399.757568 
	C256.362549,399.176727 256.608429,398.595856 256.854309,398.015015 
	C260.746094,398.015015 264.637848,398.015015 269.024963,398.015015 
z"/>
<path fill="#880015" opacity="1.000000" stroke="none" 
	d="
M267.059387,395.984985 
	C263.420013,395.984985 260.269135,395.984985 257.118225,395.984985 
	C256.826813,395.513062 256.535431,395.041138 256.244049,394.569214 
	C262.641022,390.075775 268.769348,385.073761 275.626556,381.451630 
	C277.310699,380.562042 281.762268,383.721283 284.245178,385.836548 
	C287.327972,388.462921 289.687042,391.938812 293.164124,395.985016 
	C283.937317,395.985016 275.742554,395.985016 267.059387,395.984985 
z"/>
<path fill="#050810" opacity="1.000000" stroke="none" 
	d="
M197.926514,106.024124 
	C206.653519,110.777885 207.037338,118.100441 204.900681,126.222183 
	C202.954178,133.621033 201.035934,141.028992 198.950455,148.389084 
	C197.077362,154.999603 197.640961,156.611099 203.519348,159.958252 
	C204.434616,160.479401 205.258728,161.160583 206.380447,161.946823 
	C201.139145,163.602921 195.449112,160.031433 195.031769,155.142212 
	C194.893860,153.526810 195.099518,151.809616 195.507355,150.231827 
	C198.246323,139.635788 201.082123,129.064774 203.858734,118.590546 
	C201.331802,117.896454 198.998154,117.255447 197.702209,116.899483 
	C195.355057,119.126785 193.551117,122.145187 191.231400,122.614532 
	C189.467407,122.971443 187.133179,119.933479 184.890167,118.701904 
	C183.392334,117.879478 181.632324,117.267143 179.946411,117.141624 
	C178.662674,117.046059 177.310974,117.863564 174.793411,118.647110 
	C178.812378,111.977188 184.887558,112.843353 191.006943,111.251175 
	C184.039703,107.111984 178.120926,103.325539 170.448898,104.429916 
	C171.944305,99.051895 176.398376,97.025101 183.510208,99.363129 
	C188.390869,100.967659 192.895599,103.715683 197.926514,106.024124 
z"/>
<path fill="#060912" opacity="1.000000" stroke="none" 
	d="
M267.950684,105.054855 
	C255.740250,102.225258 244.836655,106.181274 234.069946,111.333443 
	C231.206451,112.703697 227.917068,113.693024 224.790176,113.789879 
	C223.217102,113.838608 221.569946,111.494812 219.956284,110.232941 
	C221.093048,109.168488 222.049133,107.654099 223.396149,107.113144 
	C231.680527,103.786148 239.911972,100.216125 248.432404,97.616302 
	C259.005737,94.390068 263.814758,96.288498 268.272217,104.350998 
	C268.296814,104.753960 267.950684,105.054855 267.950684,105.054855 
z"/>
<path fill="#070911" opacity="1.000000" stroke="none" 
	d="
M259.458801,119.937721 
	C256.404907,118.906342 253.713196,117.856735 250.750977,116.701637 
	C250.078033,118.392540 249.678482,119.935478 248.898483,121.253235 
	C246.740463,124.899033 241.300751,125.459373 239.454468,121.625519 
	C236.749985,116.009552 233.943436,117.590034 229.795609,119.830078 
	C230.385284,118.637405 230.765594,117.267685 231.599518,116.281555 
	C236.119751,110.936195 257.624023,112.612297 260.249268,118.957687 
	C260.312592,119.110756 260.453552,119.336418 260.398315,119.413498 
	C260.253113,119.616028 260.019409,119.755119 259.458801,119.937721 
z"/>
<path fill="#0C0B10" opacity="1.000000" stroke="none" 
	d="
M302.001282,138.615814 
	C302.445587,135.559204 302.833618,132.899429 303.409882,128.949646 
	C301.034088,130.751617 299.795563,131.691025 298.554352,132.632263 
	C298.422546,126.094986 307.543732,113.651489 315.339447,110.612022 
	C314.559967,112.105446 314.266785,113.089523 313.646484,113.779518 
	C311.434692,116.239731 308.768799,118.371895 306.963348,121.086220 
	C305.930267,122.639343 305.531158,125.276413 306.045898,127.083885 
	C308.464233,135.575455 304.573456,142.082306 299.906067,148.398026 
	C299.360535,149.136230 298.123901,149.363724 297.207642,149.827972 
	C296.825439,149.521957 296.443207,149.215942 296.061005,148.909927 
	C298.022369,145.610840 299.983734,142.311752 302.001282,138.615814 
z"/>
<path fill="#09090D" opacity="1.000000" stroke="none" 
	d="
M198.425446,180.992401 
	C211.153564,182.989975 224.136902,180.229263 235.843307,186.924973 
	C221.331848,185.894180 206.820404,184.863403 191.607880,183.782806 
	C193.863708,182.800995 195.927994,181.902542 198.425446,180.992401 
z"/>
<path fill="#181315" opacity="1.000000" stroke="none" 
	d="
M215.781311,194.951080 
	C218.750275,194.664398 221.268616,194.377777 224.321716,194.030304 
	C220.057739,199.122086 207.847305,199.074036 200.576523,193.899399 
	C206.097031,194.292938 210.713867,194.622055 215.781311,194.951080 
z"/>
<path fill="#0A090E" opacity="1.000000" stroke="none" 
	d="
M218.286713,161.539429 
	C216.329895,161.129166 214.716263,160.954987 213.102646,160.780807 
	C212.982574,160.353592 212.862503,159.926361 212.742432,159.499146 
	C214.619995,159.020981 216.633514,157.880402 218.341003,158.230850 
	C220.517715,158.677612 222.447021,160.329803 224.482971,161.462387 
	C224.206604,161.967896 223.930237,162.473419 223.653885,162.978928 
	C221.979233,162.577789 220.304565,162.176651 218.286713,161.539429 
z"/>
<path fill="#030812" opacity="1.000000" stroke="none" 
	d="
M285.351196,135.284653 
	C285.109924,135.499390 284.747223,135.614807 284.384521,135.730240 
	C284.403259,135.506104 284.422028,135.281967 284.713501,135.022659 
	C284.986206,134.987488 285.229767,135.185333 285.351196,135.284653 
z"/>
<path fill="#060912" opacity="1.000000" stroke="none" 
	d="
M268.487091,104.625977 
	C268.699677,104.885483 268.721985,105.272957 268.744263,105.660431 
	C268.525024,105.630310 268.305786,105.600189 268.018616,105.312462 
	C267.950684,105.054855 268.296814,104.753960 268.487091,104.625977 
z"/>
<path fill="#0C0A0E" opacity="1.000000" stroke="none" 
	d="
M99.951363,290.008057 
	C107.719635,287.560425 115.087692,285.145935 122.455750,282.731476 
	C122.600800,283.174347 122.745857,283.617218 122.890907,284.060089 
	C112.082230,289.859497 100.370781,292.990112 88.459595,295.530304 
	C88.312927,295.136597 88.166252,294.742920 88.019585,294.349243 
	C91.863434,292.913239 95.707291,291.477234 99.951363,290.008057 
z"/>
<path fill="#0B090B" opacity="1.000000" stroke="none" 
	d="
M104.120560,325.242981 
	C103.401329,326.788025 102.812294,327.978210 102.223259,329.168365 
	C103.887497,315.223511 116.051598,302.081940 127.645157,301.369141 
	C116.736084,306.174072 108.994057,314.068451 104.120560,325.242981 
z"/>
<path fill="#07080E" opacity="1.000000" stroke="none" 
	d="
M281.062683,371.478699 
	C273.551392,372.363647 269.943451,370.530548 269.021912,365.797058 
	C268.000641,360.551239 270.266022,356.441895 274.995178,354.961792 
	C279.015533,353.703522 284.139435,355.836334 285.779114,359.450500 
	C287.515350,363.277496 285.538513,368.522125 281.062683,371.478699 
M279.817627,358.154541 
	C277.532074,358.861633 274.585266,358.919373 273.109772,360.421906 
	C270.650391,362.926300 271.507111,366.374420 274.558624,367.779327 
	C276.351349,368.604706 279.905518,368.258575 281.187531,366.968628 
	C283.618530,364.522491 283.758575,361.157593 279.817627,358.154541 
z"/>
<path fill="#0A0B10" opacity="1.000000" stroke="none" 
	d="
M280.317413,439.788666 
	C275.074554,440.561737 271.037781,439.329346 269.191772,434.390198 
	C267.582001,430.083160 269.395355,425.502869 273.158691,423.323090 
	C277.377960,420.879211 281.384521,421.857391 284.706116,426.142303 
	C287.037659,429.149902 286.501648,435.207458 283.585815,437.803467 
	C282.745422,438.551605 281.667908,439.033386 280.317413,439.788666 
M279.561951,436.168304 
	C280.681305,434.345978 282.602661,432.553040 282.670868,430.692200 
	C282.727264,429.153503 280.889557,426.738983 279.351379,426.168945 
	C277.725983,425.566620 274.663330,426.030853 273.681244,427.224457 
	C272.484833,428.678558 271.816925,432.044189 272.713470,433.375580 
	C273.873596,435.098419 276.805237,435.628326 279.561951,436.168304 
z"/>
<path fill="#F9DEAB" opacity="1.000000" stroke="none" 
	d="
M280.112427,358.416382 
	C283.758575,361.157593 283.618530,364.522491 281.187531,366.968628 
	C279.905518,368.258575 276.351349,368.604706 274.558624,367.779327 
	C271.507111,366.374420 270.650391,362.926300 273.109772,360.421906 
	C274.585266,358.919373 277.532074,358.861633 280.112427,358.416382 
z"/>
<path fill="#F8DCAA" opacity="1.000000" stroke="none" 
	d="
M279.268036,436.420074 
	C276.805237,435.628326 273.873596,435.098419 272.713470,433.375580 
	C271.816925,432.044189 272.484833,428.678558 273.681244,427.224457 
	C274.663330,426.030853 277.725983,425.566620 279.351379,426.168945 
	C280.889557,426.738983 282.727264,429.153503 282.670868,430.692200 
	C282.602661,432.553040 280.681305,434.345978 279.268036,436.420074 
z"/>
</svg>